<?xml version="1.0" encoding="UTF-8"?>
<svg version="1.1" xmlns="http://www.w3.org/2000/svg" width="294" height="259">
<path d="M0 0 C5.70393406 2.10049635 9.53709113 6.1302844 13 11 C13 11.66 13 12.32 13 13 C13.66 13 14.32 13 15 13 C16.48828125 14.625 16.48828125 14.625 18.3125 17 C20.97314361 20.42293521 23.65631328 23.81395437 26.41796875 27.15625 C27.00860107 27.87296875 27.5992334 28.5896875 28.20776367 29.328125 C29.39615843 30.76825029 30.58769882 32.20578595 31.7824707 33.640625 C32.32863037 34.30578125 32.87479004 34.9709375 33.4375 35.65625 C33.93121094 36.25244141 34.42492188 36.84863281 34.93359375 37.46289062 C36 39 36 39 36 41 C36.66 41 37.32 41 38 41 C39.4453125 42.6171875 39.4453125 42.6171875 41.125 44.875 C44.47329187 49.32294141 47.954014 53.63873803 51.49609375 57.93359375 C53 60 53 60 53 62 C53.66 62 54.32 62 55 62 C56.4453125 63.6171875 56.4453125 63.6171875 58.125 65.875 C61.47329187 70.32294141 64.954014 74.63873803 68.49609375 78.93359375 C70 81 70 81 70 83 C70.66 83 71.32 83 72 83 C73.62890625 84.80078125 73.62890625 84.80078125 75.5625 87.3125 C79.37546248 92.21687927 83.31446319 96.99557785 87.3125 101.75 C89 104 89 104 89 106 C89.66 106 90.32 106 91 106 C92.87001078 108.19355232 94.63431966 110.39484076 96.375 112.6875 C97.34101287 113.94150869 98.30715651 115.19541665 99.2734375 116.44921875 C100.90098099 118.56429343 102.51752892 120.68591609 104.125 122.81640625 C107.26830975 126.4770524 112.24594925 129.68773774 117.1015625 130.23828125 C123.29009761 130.42029699 127.91501492 129.68426002 133 126 C135.32277416 123.3908613 135.32277416 123.3908613 137 121 C137.66 121 138.32 121 139 121 C139.2686084 120.41750488 139.5372168 119.83500977 139.81396484 119.23486328 C141.01357241 116.97442532 142.33672283 115.20204498 143.9765625 113.2421875 C144.56147461 112.53852051 145.14638672 111.83485352 145.74902344 111.10986328 C146.3680957 110.3723584 146.98716797 109.63485352 147.625 108.875 C148.89371334 107.34936084 150.16194476 105.82332078 151.4296875 104.296875 C152.04295898 103.56017578 152.65623047 102.82347656 153.28808594 102.06445312 C159.40906399 94.73181619 159.40906399 94.73181619 165 87 C165.66 87 166.32 87 167 87 C167.23976562 86.27683594 167.47953125 85.55367188 167.7265625 84.80859375 C169.18195291 81.59869895 170.95105192 79.61126933 173.375 77.0625 C175.97340153 74.27224217 178.41549486 71.61174586 180.4375 68.375 C181.2109375 67.199375 181.2109375 67.199375 182 66 C182.66 66 183.32 66 184 66 C184.27674561 65.40864258 184.55349121 64.81728516 184.83862305 64.20800781 C185.93444912 62.12462522 187.08909597 60.48268852 188.58203125 58.671875 C189.35305176 57.73045654 189.35305176 57.73045654 190.13964844 56.77001953 C190.69168945 56.10341309 191.24373047 55.43680664 191.8125 54.75 C192.98051125 53.32555568 194.14847865 51.9010754 195.31640625 50.4765625 C195.91984863 49.7434082 196.52329102 49.01025391 197.14501953 48.25488281 C200.19019968 44.55321344 203.22132432 40.8401755 206.25 37.125 C206.81050049 36.44147461 207.37100098 35.75794922 207.94848633 35.05371094 C210.74394455 31.70861531 210.74394455 31.70861531 213 28 C213.66 28 214.32 28 215 28 C215.309375 27.38125 215.61875 26.7625 215.9375 26.125 C216.625 24.75 217.3125 23.375 218 22 C218.66 22 219.32 22 220 22 C220.25136719 21.443125 220.50273437 20.88625 220.76171875 20.3125 C222.20128462 17.62409939 223.91157404 15.38433543 225.8125 13 C226.81216797 11.7315625 226.81216797 11.7315625 227.83203125 10.4375 C232.86707839 4.77647402 237.36697549 2.28833528 244.9375 1.6875 C250.11966857 1.8746886 254.1407508 3.2186834 257.95703125 6.875 C263.1063458 12.58014688 264.398416 16.49280441 264.2578125 24.17578125 C263.47225272 32.78123156 257.14811693 38.61965 251.69921875 44.85546875 C248.96492617 47.99729887 246.49766504 51.28674319 244.12109375 54.70703125 C243.75113281 55.13371094 243.38117188 55.56039062 243 56 C242.34 56 241.68 56 241 56 C240.73123047 56.58193115 240.46246094 57.1638623 240.18554688 57.76342773 C238.98718561 60.02417476 237.66003772 61.81636665 236.03125 63.78515625 C235.17466797 64.82833008 235.17466797 64.82833008 234.30078125 65.89257812 C233.70652344 66.60865234 233.11226563 67.32472656 232.5 68.0625 C231.32176121 69.48993246 230.14463252 70.91828213 228.96875 72.34765625 C228.44732422 72.97679932 227.92589844 73.60594238 227.38867188 74.25415039 C226.17863199 75.77542241 225.07824146 77.38263782 224 79 C223.34 79 222.68 79 222 79 C221.74863281 79.56074219 221.49726563 80.12148437 221.23828125 80.69921875 C219.81178021 83.34972069 218.1007898 85.48948083 216.1875 87.8125 C213.70877135 90.84905506 211.33405422 93.88725188 209.125 97.125 C208.42375 98.07375 207.7225 99.0225 207 100 C206.34 100 205.68 100 205 100 C204.63648438 100.82757813 204.63648438 100.82757813 204.265625 101.671875 C202.72388829 104.50790919 200.82612719 106.77842001 198.75 109.25 C195.39444073 113.27559042 192.20616919 117.35077371 189.19140625 121.63671875 C188.79824219 122.08660156 188.40507812 122.53648437 188 123 C187.34 123 186.68 123 186 123 C185.59249512 123.87833496 185.59249512 123.87833496 185.17675781 124.77441406 C184.01611618 126.9695197 182.75330947 128.70117239 181.171875 130.609375 C180.61886719 131.28226563 180.06585938 131.95515625 179.49609375 132.6484375 C178.91988281 133.34195313 178.34367188 134.03546875 177.75 134.75 C176.61824446 136.1185136 175.48803178 137.48830463 174.359375 138.859375 C173.80314453 139.53419922 173.24691406 140.20902344 172.67382812 140.90429688 C170.43440089 143.70815384 168.34308744 146.6113018 166.27050781 149.54003906 C165.85124023 150.02182617 165.43197266 150.50361328 165 151 C164.34 151 163.68 151 163 151 C162.71898437 151.58394531 162.43796875 152.16789063 162.1484375 152.76953125 C156.57085867 163.60217584 146.67466638 171.14136093 135.3515625 175.34375 C121.83850973 179.11483449 108.00906484 177.44368213 95.75 170.8125 C94.15863498 169.88869912 92.57208225 168.95624688 91 168 C91 167.34 91 166.68 91 166 C90.1028125 165.5978125 90.1028125 165.5978125 89.1875 165.1875 C87.00152146 164.00082594 85.58667406 162.90400887 84 161 C84 160.34 84 159.68 84 159 C83.34 159 82.68 159 82 159 C80.17296539 156.84756216 78.45082043 154.6863783 76.75 152.4375 C75.76042318 151.14873372 74.76954928 149.8609623 73.77734375 148.57421875 C73.30022949 147.95466309 72.82311523 147.33510742 72.33154297 146.69677734 C70.72670249 144.65173859 69.03959173 142.69246049 67.3125 140.75 C65 138 65 138 65 136 C64.34 136 63.68 136 63 136 C62.01 133.525 62.01 133.525 61 131 C60.34 131 59.68 131 59 131 C57.51171875 129.375 57.51171875 129.375 55.6875 127 C53.02685639 123.57706479 50.34368672 120.18604563 47.58203125 116.84375 C46.99139893 116.12703125 46.4007666 115.4103125 45.79223633 114.671875 C44.60384157 113.23174971 43.41230118 111.79421405 42.2175293 110.359375 C41.67136963 109.69421875 41.12520996 109.0290625 40.5625 108.34375 C39.82193359 107.44946289 39.82193359 107.44946289 39.06640625 106.53710938 C38 105 38 105 38 103 C37.34 103 36.68 103 36 103 C34.37109375 101.19921875 34.37109375 101.19921875 32.4375 98.6875 C31.72078125 97.7696875 31.0040625 96.851875 30.265625 95.90625 C29.14414063 94.46765625 29.14414063 94.46765625 28 93 C23.22665525 87.07687148 18.36445232 81.23291769 13.4375 75.4375 C9.63236599 70.95918506 5.90137461 66.43584025 2.2578125 61.82421875 C0.39702596 59.4966259 -1.48531846 57.1920742 -3.3828125 54.89453125 C-3.97852051 54.17048096 -4.57422852 53.44643066 -5.18798828 52.70043945 C-6.38305231 51.24919827 -7.58187035 49.80103919 -8.78466797 48.35620117 C-9.33010254 47.69209229 -9.87553711 47.0279834 -10.4375 46.34375 C-11.17806641 45.44946289 -11.17806641 45.44946289 -11.93359375 44.53710938 C-13 43 -13 43 -13 41 C-13.66 41 -14.32 41 -15 41 C-16.77643163 38.76246465 -18.43237932 36.52777227 -20.0625 34.1875 C-20.52205078 33.54490234 -20.98160156 32.90230469 -21.45507812 32.24023438 C-25.48938221 26.52348923 -26.79910523 22.03212604 -26 15 C-24.1126791 8.72408955 -20.25446912 4.74025019 -15 1 C-10.54571922 -1.22714039 -4.83305183 -0.49801939 0 0 Z " fill="#3F6FF4" transform="translate(27,82)"/>
<path d="M0 0 C5.70005607 5.70005607 9.63351303 10.50120111 9.8125 18.6875 C9.79292931 24.57175534 8.99004944 27.81024607 5.5 32.5 C4.84 32.5 4.18 32.5 3.5 32.5 C3.13068359 33.57701172 3.13068359 33.57701172 2.75390625 34.67578125 C1.35883684 37.81794692 -0.36471807 40.05095942 -2.5625 42.6875 C-5.30920164 45.91282987 -5.30920164 45.91282987 -7.5 49.5 C-8.16 49.5 -8.82 49.5 -9.5 49.5 C-9.5 50.16 -9.5 50.82 -9.5 51.5 C-10.16 51.5 -10.82 51.5 -11.5 51.5 C-11.726875 52.1909375 -11.95375 52.881875 -12.1875 53.59375 C-13.79950375 57.16318687 -16.04481638 59.98824053 -18.5 63 C-19.48757824 64.23389575 -20.47454249 65.46828315 -21.4609375 66.703125 C-22.21455566 67.64188477 -22.21455566 67.64188477 -22.98339844 68.59960938 C-25.39715334 71.62418571 -27.76399963 74.68417158 -30.125 77.75 C-30.55039063 78.29849609 -30.97578125 78.84699219 -31.4140625 79.41210938 C-33.65948888 82.32519702 -33.65948888 82.32519702 -35.5 85.5 C-36.16 85.5 -36.82 85.5 -37.5 85.5 C-37.77980713 86.08990723 -38.05961426 86.67981445 -38.34790039 87.28759766 C-39.41212789 89.33125724 -40.549762 91.06230585 -41.93359375 92.8984375 C-42.41199707 93.53547607 -42.89040039 94.17251465 -43.38330078 94.82885742 C-43.89618652 95.50408447 -44.40907227 96.17931152 -44.9375 96.875 C-45.47101074 97.58180908 -46.00452148 98.28861816 -46.55419922 99.0168457 C-50.91878164 104.7797707 -55.37149458 110.47042706 -59.85546875 116.140625 C-62.82626222 119.90211158 -65.73538928 123.70965142 -68.64526367 127.51831055 C-72.5021417 132.54519247 -76.47287083 137.47925738 -80.47827148 142.38842773 C-82.54977582 144.94922549 -84.43751001 147.39393346 -86.11328125 150.23828125 C-89.05129462 155.03013967 -93.84898494 157.80957552 -98.9375 159.9375 C-106.3305502 161.10482372 -111.55483789 160.02288652 -117.7734375 155.8515625 C-122.55191876 152.11094142 -124.33158373 148.44911183 -125.5 142.5 C-125.75340396 135.71440517 -124.87917757 130.85232815 -120.5 125.5 C-119.6212806 124.21086076 -118.74634839 122.91913282 -117.875 121.625 C-117.09125 120.59375 -116.3075 119.5625 -115.5 118.5 C-114.84 118.5 -114.18 118.5 -113.5 118.5 C-113.22454346 117.91516846 -112.94908691 117.33033691 -112.6652832 116.7277832 C-111.54401222 114.58414236 -110.31866225 112.77746238 -108.85546875 110.85546875 C-108.34306641 110.17806641 -107.83066406 109.50066406 -107.30273438 108.80273438 C-106.50319336 107.75569336 -106.50319336 107.75569336 -105.6875 106.6875 C-104.63852887 105.3065924 -103.59034473 103.92508661 -102.54296875 102.54296875 C-102.0329834 101.87313965 -101.52299805 101.20331055 -100.99755859 100.51318359 C-99.5270339 98.53634195 -98.13171585 96.51988333 -96.73828125 94.48828125 C-95.99964844 93.50214844 -95.26101562 92.51601562 -94.5 91.5 C-93.84 91.5 -93.18 91.5 -92.5 91.5 C-92.2215625 90.51 -92.2215625 90.51 -91.9375 89.5 C-90.64246492 86.79731809 -89.59971234 85.35439846 -87.625 83.1875 C-83.86506087 79.05395169 -80.52609836 74.66146177 -77.1875 70.1875 C-76.65979004 69.48133545 -76.13208008 68.7751709 -75.58837891 68.04760742 C-73.49393163 65.23148426 -71.44752264 62.42128395 -69.5 59.5 C-68.84 59.5 -68.18 59.5 -67.5 59.5 C-67.26410156 58.78972656 -67.02820313 58.07945313 -66.78515625 57.34765625 C-65.27324472 53.99755441 -63.34816762 51.71033365 -60.9375 48.9375 C-54.72585971 41.68207723 -48.97896142 34.12129042 -43.5625 26.25 C-42.881875 25.3425 -42.20125 24.435 -41.5 23.5 C-40.84 23.5 -40.18 23.5 -39.5 23.5 C-39.2628125 22.79101562 -39.025625 22.08203125 -38.78125 21.3515625 C-37.2834693 18.01808716 -35.36184979 15.65860868 -33 12.875 C-30.68155004 10.12748625 -28.49502675 7.49254012 -26.5 4.5 C-25.84 4.5 -25.18 4.5 -24.5 4.5 C-24.5 3.84 -24.5 3.18 -24.5 2.5 C-17.42032446 -2.89403851 -8.16992378 -3.50139591 0 0 Z " fill="#3F6FF4" transform="translate(254.5,14.5)"/>
<path d="M0 0 C6.07906424 3.49916869 11.71517623 9.05163427 14.1875 15.7578125 C15.68021168 23.40795984 16.1893012 32.47087919 11.9453125 39.296875 C7.21368368 45.4003962 2.29648013 50.09341156 -5.375 52 C-15.68556022 53.14693158 -21.85468654 51.68020898 -30.375 46 C-30.375 45.34 -30.375 44.68 -30.375 44 C-31.365 43.67 -32.355 43.34 -33.375 43 C-34.7265625 40.85546875 -34.7265625 40.85546875 -36 38.1875 C-36.42539063 37.31480469 -36.85078125 36.44210938 -37.2890625 35.54296875 C-40.40851639 28.23806054 -40.01698124 21.434748 -37.2734375 14.09765625 C-33.9581047 6.3570749 -28.40285597 2.39928632 -20.9765625 -1.14453125 C-14.16097878 -3.38569166 -6.50969068 -2.96076284 0 0 Z " fill="#406FF4" transform="translate(156.375,4)"/>
<path d="M0 0 C5.00060429 4.38383147 8.59278917 9.11827594 9.30078125 15.8671875 C9.32486429 22.04850118 8.97688864 26.54237082 6 32 C5.34 32 4.68 32 4 32 C4 32.66 4 33.32 4 34 C-0.14830931 38.28658628 -5.20431426 40.1043814 -11 41 C-16.26649267 40.66720425 -20.71274964 39.09634748 -25 36 C-25.86625 35.401875 -26.7325 34.80375 -27.625 34.1875 C-32.38959918 29.79905339 -33.62141318 24.85899615 -34.0546875 18.5859375 C-33.92376047 12.39495924 -31.98863841 7.68339364 -27.8125 3.125 C-19.87878564 -4.07380187 -9.4620818 -5.03976844 0 0 Z " fill="#367DEB" transform="translate(108,68)"/>
<path d="M0 0 C1.74216797 0.02707031 1.74216797 0.02707031 3.51953125 0.0546875 C4.84017578 0.08949219 4.84017578 0.08949219 6.1875 0.125 C6.1875 0.785 6.1875 1.445 6.1875 2.125 C3.8775 2.125 1.5675 2.125 -0.8125 2.125 C-0.8125 2.785 -0.8125 3.445 -0.8125 4.125 C-1.46476562 4.22296875 -2.11703125 4.3209375 -2.7890625 4.421875 C-8.50034693 5.39902691 -12.19223893 6.6598042 -16.8125 10.125 C-17.4725 10.125 -18.1325 10.125 -18.8125 10.125 C-19.080625 10.888125 -19.34875 11.65125 -19.625 12.4375 C-20.77853641 15.04813504 -21.79879865 16.19885089 -23.8125 18.125 C-24.96820704 21.59212111 -25.14085293 24.6664956 -25.375 28.3125 C-25.45878906 29.58480469 -25.54257813 30.85710938 -25.62890625 32.16796875 C-25.71978516 33.63169922 -25.71978516 33.63169922 -25.8125 35.125 C-28.43594612 30.39025462 -28.48019132 26.00533265 -27.27734375 20.81640625 C-24.48148467 11.75660061 -20.03693291 6.7295729 -11.8125 2.125 C-7.75297077 0.12211969 -4.50731563 -0.09105688 0 0 Z " fill="#4063CA" transform="translate(144.8125,1.875)"/>
<path d="M0 0 C-3.24718093 2.5706849 -6.69104763 4.59626611 -10.29296875 6.62109375 C-12.36189055 8.29232807 -12.63210681 9.41376575 -13 12 C-13.99 12 -14.98 12 -16 12 C-16.0928125 12.804375 -16.0928125 12.804375 -16.1875 13.625 C-17.66255136 17.93668859 -21.03695667 21.06370787 -24.25 24.1875 C-26.23329649 25.98079696 -26.23329649 25.98079696 -27 29 C-29.29167646 31.9791794 -31.33535945 32.5047783 -35 33 C-33 30 -31 27 -29 24 C-28.34 24 -27.68 24 -27 24 C-26.690625 23.38125 -26.38125 22.7625 -26.0625 22.125 C-25.375 20.75 -24.6875 19.375 -24 18 C-23.34 18 -22.68 18 -22 18 C-21.74863281 17.443125 -21.49726563 16.88625 -21.23828125 16.3125 C-19.79871538 13.62409939 -18.08842596 11.38433543 -16.1875 9 C-15.52105469 8.154375 -14.85460937 7.30875 -14.16796875 6.4375 C-9.70837223 1.42346716 -6.67405965 -1.58069834 0 0 Z " fill="#3D60C7" transform="translate(269,86)"/>
<path d="M0 0 C0.495 1.98 0.495 1.98 1 4 C0.34 4.33 -0.32 4.66 -1 5 C-1.309375 5.61875 -1.61875 6.2375 -1.9375 6.875 C-3 9 -3 9 -4.5625 10.5 C-6.26316011 12.27460185 -6.58794182 13.61006256 -7 16 C-7.66 16 -8.32 16 -9 16 C-9.2475 16.61875 -9.495 17.2375 -9.75 17.875 C-11.23250486 20.39525827 -12.28387064 21.01231659 -15 22 C-15.99 22 -16.98 22 -18 22 C-18 22.66 -18 23.32 -18 24 C-21.65114159 26.30598416 -24.8080257 26.26789474 -29.0625 26.25 C-30.29097656 26.25515625 -31.51945313 26.2603125 -32.78515625 26.265625 C-36 26 -36 26 -39 24 C-39 23.34 -39 22.68 -39 22 C-38.38125 22.165 -37.7625 22.33 -37.125 22.5 C-30.06441427 23.62969372 -24.0467914 23.79975766 -17.6875 20.22265625 C-15.31240479 18.5018118 -13.70651158 16.36286219 -12 14 C-11.34 14 -10.68 14 -10 14 C-9.63261719 13.17242187 -9.63261719 13.17242187 -9.2578125 12.328125 C-7.74261886 9.52360509 -5.88915874 7.21896877 -3.875 4.75 C-3.15054688 3.85796875 -2.42609375 2.9659375 -1.6796875 2.046875 C-1.12539062 1.37140625 -0.57109375 0.6959375 0 0 Z " fill="#3960C1" transform="translate(176,189)"/>
<path d="M0 0 C1 2 1 2 -0.0625 5.5 C-0.72265625 7.34375 -0.72265625 7.34375 -2 9 C-3.98 9.66 -5.96 10.32 -8 11 C-7.34 15.62 -6.68 20.24 -6 25 C-5.01 25 -4.02 25 -3 25 C-2.67 24.34 -2.34 23.68 -2 23 C-0.89155081 26.32534757 -1.15545644 28.62182575 -2 32 C-1.01 32 -0.02 32 1 32 C1.66 33.98 2.32 35.96 3 38 C2.01 38.495 2.01 38.495 1 39 C-0.65050138 36.73243277 -2.29550028 34.46121039 -3.9375 32.1875 C-4.40607422 31.54490234 -4.87464844 30.90230469 -5.35742188 30.24023438 C-5.80537109 29.61826172 -6.25332031 28.99628906 -6.71484375 28.35546875 C-7.12855225 27.78465576 -7.54226074 27.21384277 -7.96850586 26.62573242 C-10.64229421 22.41158884 -10.55276578 17.80361245 -10 13 C-8.14683869 7.05929431 -4.95785895 3.6057156 0 0 Z " fill="#3C61C7" transform="translate(11,84)"/>
<path d="M0 0 C-1.48519701 4.5231 -4.03187701 7.85902078 -7 11.5 C-7.98757824 12.73389575 -8.97454249 13.96828315 -9.9609375 15.203125 C-10.46334961 15.82896484 -10.96576172 16.45480469 -11.48339844 17.09960938 C-13.89715334 20.12418571 -16.26399963 23.18417158 -18.625 26.25 C-19.26308594 27.07274414 -19.26308594 27.07274414 -19.9140625 27.91210938 C-22.15948888 30.82519702 -22.15948888 30.82519702 -24 34 C-24.66 34 -25.32 34 -26 34 C-26.66 35.32 -27.32 36.64 -28 38 C-28.495 36.515 -28.495 36.515 -29 35 C-28.34 35 -27.68 35 -27 35 C-27 33.02 -27 31.04 -27 29 C-25.68 29 -24.36 29 -23 29 C-23 28.34 -23 27.68 -23 27 C-22.34 27 -21.68 27 -21 27 C-20.896875 26.360625 -20.79375 25.72125 -20.6875 25.0625 C-20.460625 24.381875 -20.23375 23.70125 -20 23 C-19.01 22.67 -18.02 22.34 -17 22 C-17 20.35 -17 18.7 -17 17 C-15.68 17 -14.36 17 -13 17 C-12.67 15.35 -12.34 13.7 -12 12 C-11.01 11.67 -10.02 11.34 -9 11 C-9 10.01 -9 9.02 -9 8 C-8.01 8 -7.02 8 -6 8 C-6.226875 7.4225 -6.45375 6.845 -6.6875 6.25 C-7 4 -7 4 -5.8125 1.75 C-4 0 -4 0 0 0 Z " fill="#3A5CBD" transform="translate(243,66)"/>
<path d="M0 0 C0.33 0 0.66 0 1 0 C1.50746413 10.82590141 1.35026355 18.40587105 -6.1875 26.75 C-13.49481433 33.48691215 -20.27746481 34.4414513 -30.05859375 34.3359375 C-33 34 -33 34 -35 32 C-28.07 32.495 -28.07 32.495 -21 33 C-21 32.34 -21 31.68 -21 31 C-20.01 30.34 -19.02 29.68 -18 29 C-17.34 28.01 -16.68 27.02 -16 26 C-13.66752239 25.66073053 -11.33414529 25.32759934 -9 25 C-7.20614008 23.5420814 -7.20614008 23.5420814 -6 22 C-5.34 22 -4.68 22 -4 22 C-4 21.01 -4 20.02 -4 19 C-3.34 19 -2.68 19 -2 19 C-2.20625 18.236875 -2.4125 17.47375 -2.625 16.6875 C-3 14 -3 14 -1 11 C-0.54227937 8.26127045 -0.54227937 8.26127045 -0.375 5.3125 C-0.30023438 4.31863281 -0.22546875 3.32476563 -0.1484375 2.30078125 C-0.09945312 1.54152344 -0.05046875 0.78226563 0 0 Z " fill="#3A5FC8" transform="translate(170,22)"/>
<path d="M0 0 C5.84380447 -0.30756866 9.79882154 -0.0261402 15 3 C20.21010706 7.99171934 23.1151714 11.82402749 23.3125 19.1875 C23.26217431 24.61548558 22.19824777 28.59160442 19 33 C16.75 35 16.75 35 15 36 C15.33 34.68 15.66 33.36 16 32 C16.66 32 17.32 32 18 32 C19.30251268 26.13869293 19.52771213 19.97477465 19 14 C18.34 13.34 17.68 12.68 17 12 C17.33 11.01 17.66 10.02 18 9 C16.68 8.34 15.36 7.68 14 7 C14 6.01 14 5.02 14 4 C13.360625 3.87625 12.72125 3.7525 12.0625 3.625 C8.02988724 2.8020178 4.01576093 1.90114025 0 1 C0 0.67 0 0.34 0 0 Z " fill="#4065C9" transform="translate(268,84)"/>
<path d="M0 0 C0.99 0.33 1.98 0.66 3 1 C2.63237549 1.44802979 2.26475098 1.89605957 1.88598633 2.35766602 C0.19255915 4.42409946 -1.49748269 6.49327708 -3.1875 8.5625 C-3.76564453 9.26697266 -4.34378906 9.97144531 -4.93945312 10.69726562 C-7.69244576 14.07240349 -10.3645262 17.45859284 -12.86328125 21.02734375 C-13.56839844 22.00832031 -14.27351562 22.98929688 -15 24 C-15.33 24 -15.66 24 -16 24 C-16 22.02 -16 20.04 -16 18 C-15.01 18 -14.02 18 -13 18 C-13 16.68 -13 15.36 -13 14 C-11.35 13.67 -9.7 13.34 -8 13 C-8 11.68 -8 10.36 -8 9 C-7.34 9 -6.68 9 -6 9 C-6.33 8.01 -6.66 7.02 -7 6 C-6.34 5.34 -5.68 4.68 -5 4 C-4.01 4 -3.02 4 -2 4 C-1.34 2.68 -0.68 1.36 0 0 Z " fill="#395BC1" transform="translate(197,123)"/>
<path d="M0 0 C0.99 0.495 0.99 0.495 2 1 C2 1.66 2 2.32 2 3 C2.66 3 3.32 3 4 3 C5.515625 4.6875 5.515625 4.6875 7.25 7 C7.86488281 7.81339844 8.47976562 8.62679687 9.11328125 9.46484375 C9.73589844 10.30144531 10.35851562 11.13804687 11 12 C11.59167969 12.78503906 12.18335937 13.57007813 12.79296875 14.37890625 C14.20098609 16.24845896 15.60310881 18.12212797 17 20 C16.34 20.33 15.68 20.66 15 21 C15 20.34 15 19.68 15 19 C14.236875 18.9175 13.47375 18.835 12.6875 18.75 C10 18 10 18 8.1875 16.125 C7 14 7 14 7 11 C6.401875 10.95875 5.80375 10.9175 5.1875 10.875 C3 10 3 10 1.25 7.1875 C0 4 0 4 0 0 Z " fill="#385DBE" transform="translate(61,120)"/>
<path d="M0 0 C0.93423645 3.01031744 1.04449911 3.86650268 0 7 C-0.825 7.28875 -1.65 7.5775 -2.5 7.875 C-3.325 8.24625 -4.15 8.6175 -5 9 C-5.89386164 11.54775306 -5.89386164 11.54775306 -6 14 C-6.66 14 -7.32 14 -8 14 C-8 14.99 -8 15.98 -8 17 C-9.32 17.33 -10.64 17.66 -12 18 C-12.33 19.32 -12.66 20.64 -13 22 C-14.65 22.33 -16.3 22.66 -18 23 C-12.23188771 15.14895827 -6.10631187 7.5884264 0 0 Z " fill="#4064CF" transform="translate(233,119)"/>
<path d="M0 0 C1 2 1 2 0.28515625 4.35546875 C-2.31402818 10.37594387 -4.83157182 14.31594243 -9.99609375 18.36328125 C-13.10103837 20.89928865 -15.47002335 23.90077861 -18 27 C-18.66 26.67 -19.32 26.34 -20 26 C-18.71632558 24.16106176 -17.42283239 22.32897375 -16.125 20.5 C-15.40570313 19.4790625 -14.68640625 18.458125 -13.9453125 17.40625 C-13.30335938 16.6121875 -12.66140625 15.818125 -12 15 C-11.34 15 -10.68 15 -10 15 C-9.75507813 14.28457031 -9.51015625 13.56914063 -9.2578125 12.83203125 C-7.84640324 9.65416879 -6.08718481 7.36353001 -3.875 4.6875 C-3.15054688 3.80449219 -2.42609375 2.92148437 -1.6796875 2.01171875 C-1.12539062 1.34785156 -0.57109375 0.68398438 0 0 Z " fill="#3A5BC1" transform="translate(197,59)"/>
<path d="M0 0 C0.33 0.66 0.66 1.32 1 2 C0.1875 4.375 0.1875 4.375 -1 7 C-1.2475 7.66 -1.495 8.32 -1.75 9 C-3 11 -3 11 -5.9375 13.4375 C-9.06972305 15.76866597 -9.06972305 15.76866597 -10.625 18.75 C-12 21 -12 21 -14.1875 21.8125 C-14.785625 21.874375 -15.38375 21.93625 -16 22 C-14.34643078 18.41726669 -12.32019297 15.19026533 -10 12 C-9.34 12 -8.68 12 -8 12 C-7.79375 11.319375 -7.5875 10.63875 -7.375 9.9375 C-5.54591134 6.02990149 -2.89720966 3.16142061 0 0 Z " fill="#3659B7" transform="translate(170,94)"/>
<path d="M0 0 C1.09658936 3.28976808 0.79953138 4.71303767 0 8 C-0.66 8 -1.32 8 -2 8 C-3.03354508 11.10063523 -3.13364996 13.31444068 -3.125 16.5625 C-3.12757812 17.53316406 -3.13015625 18.50382812 -3.1328125 19.50390625 C-3.16650953 21.99952953 -3.16650953 21.99952953 -2 24 C-2.99 24.33 -3.98 24.66 -5 25 C-7.48835999 18.1204165 -7.40253202 12.4425786 -4.625 5.625 C-3.23489326 3.37944295 -1.99376268 1.70893944 0 0 Z " fill="#3662AD" transform="translate(81,71)"/>
<path d="M0 0 C5.63771177 0.10354981 9.11388321 0.23888321 13.25 4.375 C15.37418155 6.96353752 17.35887034 9.61207297 19.25 12.375 C18.25 14.375 18.25 14.375 16.25 15.375 C15.92 13.395 15.59 11.415 15.25 9.375 C14.59 9.375 13.93 9.375 13.25 9.375 C12.92 8.715 12.59 8.055 12.25 7.375 C11.26 7.045 10.27 6.715 9.25 6.375 C9.25 5.715 9.25 5.055 9.25 4.375 C3.17972642 2.2166805 -2.34370576 2.16647686 -8.75 2.375 C-5.91974094 -0.45525906 -3.94694328 0.04163442 0 0 Z " fill="#3553AC" transform="translate(243.75,12.625)"/>
<path d="M0 0 C1.0725 0.2475 2.145 0.495 3.25 0.75 C1.47054913 4.79420651 -1.14529673 8.21078487 -3.75 11.75 C-4.20375 11.09 -4.6575 10.43 -5.125 9.75 C-5.66125 9.09 -6.1975 8.43 -6.75 7.75 C-7.41 7.75 -8.07 7.75 -8.75 7.75 C-8.37257585 5.10803093 -7.67468979 3.64282778 -6.125 1.4375 C-3.75 -0.25 -3.75 -0.25 0 0 Z " fill="#3C6FF3" transform="translate(172.75,152.25)"/>
<path d="M0 0 C2 3 2 3 2 5 C1.34 5 0.68 5 0 5 C-0.26683594 5.57234375 -0.53367188 6.1446875 -0.80859375 6.734375 C-2.04896807 9.09311961 -3.45945664 11.123112 -5.0625 13.25 C-5.58972656 13.95640625 -6.11695313 14.6628125 -6.66015625 15.390625 C-7.10230469 15.92171875 -7.54445312 16.4528125 -8 17 C-8.33 17 -8.66 17 -9 17 C-9 15.35 -9 13.7 -9 12 C-7.68 11.34 -6.36 10.68 -5 10 C-5.04125 9.071875 -5.0825 8.14375 -5.125 7.1875 C-5 4 -5 4 -3 1 C-2.01 0.67 -1.02 0.34 0 0 Z " fill="#3C64CF" transform="translate(213,200)"/>
<path d="M0 0 C0.268125 0.639375 0.53625 1.27875 0.8125 1.9375 C1.88667752 4.33131686 1.88667752 4.33131686 5 5 C7 8 7 8 7 11 C7.60328125 11.08121094 8.2065625 11.16242188 8.828125 11.24609375 C11.68175609 12.23665274 12.27109721 13.47442011 13.75 16.0625 C14.17796875 16.79597656 14.6059375 17.52945313 15.046875 18.28515625 C15.36140625 18.85105469 15.6759375 19.41695312 16 20 C15.01 20 14.02 20 13 20 C12.34 18.68 11.68 17.36 11 16 C10.34 16 9.68 16 9 16 C7.16015625 13.98828125 7.16015625 13.98828125 5.0625 11.3125 C4.02802734 10.00732422 4.02802734 10.00732422 2.97265625 8.67578125 C1.14095296 6.19119361 -0.46283871 3.67437152 -2 1 C-1.34 0.67 -0.68 0.34 0 0 Z " fill="#3A5CB8" transform="translate(54,169)"/>
<path d="M0 0 C0.99 0.33 1.98 0.66 3 1 C3 1.66 3 2.32 3 3 C2.34 3 1.68 3 1 3 C0.7628125 3.54269531 0.525625 4.08539063 0.28125 4.64453125 C-1.33862072 7.62252528 -3.34742591 10.07016559 -5.5 12.6875 C-6.2940625 13.66074219 -7.088125 14.63398438 -7.90625 15.63671875 C-10 18 -10 18 -12 19 C-11.39285714 13.53571429 -11.39285714 13.53571429 -9.625 11.125 C-8 10 -8 10 -5 10 C-4.896875 9.360625 -4.79375 8.72125 -4.6875 8.0625 C-4.460625 7.381875 -4.23375 6.70125 -4 6 C-3.01 5.67 -2.02 5.34 -1 5 C-0.67 3.35 -0.34 1.7 0 0 Z " fill="#385BB7" transform="translate(231,179)"/>
<path d="M0 0 C5.59455163 1.35625494 8.76952557 5.50397889 12 10 C13.4375 13.5 13.4375 13.5 14 16 C13.34 16 12.68 16 12 16 C9 12.53846154 9 12.53846154 9 10 C7.68 10 6.36 10 5 10 C4.67 8.02 4.34 6.04 4 4 C2.68 3.67 1.36 3.34 0 3 C0 2.01 0 1.02 0 0 Z " fill="#4065CF" transform="translate(156,5)"/>
<path d="M0 0 C3.05566461 2.96306871 5.97135828 6.01720161 8.8125 9.1875 C9.41707031 9.86167969 10.02164063 10.53585938 10.64453125 11.23046875 C12 13 12 13 12 15 C12.66 15 13.32 15 14 15 C13.67 15.99 13.34 16.98 13 18 C12.34 18 11.68 18 11 18 C11 17.34 11 16.68 11 16 C9.68 15.67 8.36 15.34 7 15 C7.33 13.68 7.66 12.36 8 11 C7.01 10.67 6.02 10.34 5 10 C4.855625 9.360625 4.71125 8.72125 4.5625 8.0625 C4.19895007 5.79688294 4.19895007 5.79688294 1.9375 4.75 C1.298125 4.5025 0.65875 4.255 0 4 C0 2.68 0 1.36 0 0 Z " fill="#3C5DBA" transform="translate(104,173)"/>
<path d="M0 0 C0.33 0.66 0.66 1.32 1 2 C0.34 2 -0.32 2 -1 2 C-1 2.66 -1 3.32 -1 4 C-4.65114159 6.30598416 -7.8080257 6.26789474 -12.0625 6.25 C-13.29097656 6.25515625 -14.51945313 6.2603125 -15.78515625 6.265625 C-19 6 -19 6 -22 4 C-22 3.34 -22 2.68 -22 2 C-21.38125 2.165 -20.7625 2.33 -20.125 2.5 C-12.68311551 3.69070152 -6.72733124 3.50991195 0 0 Z " fill="#3A5CB6" transform="translate(159,209)"/>
<path d="M0 0 C3.37462715 0.54723683 5.08235 1.0549 8 3 C10.74341518 3.45770675 13.42742471 3.83091338 16.1875 4.125 C16.93708984 4.21136719 17.68667969 4.29773438 18.45898438 4.38671875 C20.30517412 4.59838382 22.15249344 4.80015464 24 5 C21.75568458 7.24431542 20.24620492 7.66910822 17.1328125 8.02734375 C11.53771769 7.95561177 5.88350635 6.30961855 1.875 2.3125 C1.25625 1.549375 0.6375 0.78625 0 0 Z " fill="#3B6ABA" transform="translate(80,101)"/>
<path d="M0 0 C3.11269171 4.66903756 2.48651426 9.52847728 2 15 C1.24611862 17.61461749 0.31092155 19.59664383 -1 22 C-1.66 22 -2.32 22 -3 22 C-3.33 22.66 -3.66 23.32 -4 24 C-4 23.34 -4 22.68 -4 22 C-4.99 22.33 -5.98 22.66 -7 23 C-7 22.34 -7 21.68 -7 21 C-5.35 21 -3.7 21 -2 21 C-2.020625 19.865625 -2.04125 18.73125 -2.0625 17.5625 C-2 14 -2 14 -1 13 C-0.76518307 10.81707226 -0.58636677 8.62796826 -0.4375 6.4375 C-0.35371094 5.23996094 -0.26992187 4.04242188 -0.18359375 2.80859375 C-0.12300781 1.88175781 -0.06242187 0.95492187 0 0 Z " fill="#3462AF" transform="translate(115,78)"/>
<path d="M0 0 C1 2 1 2 0.40625 3.8125 C0.1071875 4.534375 -0.191875 5.25625 -0.5 6 C-2.68958266 12.15073674 -2.04138611 17.87584168 0 24 C-0.66 24.66 -1.32 25.32 -2 26 C-4.97175763 19.20021559 -5.70777993 13.2805355 -4 6 C-2.87217102 3.63519729 -1.69724854 2.02574826 0 0 Z " fill="#3254A2" transform="translate(134,140)"/>
<path d="M0 0 C0.66 0.66 1.32 1.32 2 2 C1.625 5.625 1.625 5.625 1 9 C1.99 9 2.98 9 4 9 C4.66 10.98 5.32 12.96 6 15 C5.01 15.495 5.01 15.495 4 16 C2.63343543 14.23871656 1.28205915 12.46563912 -0.0625 10.6875 C-0.81660156 9.70136719 -1.57070312 8.71523437 -2.34765625 7.69921875 C-2.89292969 6.80847656 -3.43820313 5.91773437 -4 5 C-3.67 4.01 -3.34 3.02 -3 2 C-2.01 2 -1.02 2 0 2 C0 1.34 0 0.68 0 0 Z " fill="#3D62CD" transform="translate(8,107)"/>
<path d="M0 0 C1.26339822 3.79019466 0.49719015 5.37522384 -1 9 C-1.99 9.495 -1.99 9.495 -3 10 C-4.15570704 13.46712111 -4.32835293 16.5414956 -4.5625 20.1875 C-4.64628906 21.45980469 -4.73007813 22.73210938 -4.81640625 24.04296875 C-4.87699219 25.01878906 -4.93757813 25.99460937 -5 27 C-7.62344612 22.26525462 -7.66769132 17.88033265 -6.46484375 12.69140625 C-4.97800257 7.87339085 -3.00358602 4.03930534 0 0 Z " fill="#3450A6" transform="translate(124,10)"/>
<path d="M0 0 C7.42525228 -0.39080275 12.78993 0.77014479 18.5 5.875 C19.9765625 7.4375 19.9765625 7.4375 21 9 C20.875 11.875 20.875 11.875 20 14 C19.01 13.34 18.02 12.68 17 12 C17.33 11.01 17.66 10.02 18 9 C16.68 8.34 15.36 7.68 14 7 C14 6.01 14 5.02 14 4 C13.360625 3.87625 12.72125 3.7525 12.0625 3.625 C8.02988724 2.8020178 4.01576093 1.90114025 0 1 C0 0.67 0 0.34 0 0 Z " fill="#3B5EBB" transform="translate(268,84)"/>
<path d="M0 0 C1.9375 0.3125 1.9375 0.3125 4 1 C4.33 1.99 4.66 2.98 5 4 C6.66072849 4.68132451 8.327767 5.34742127 10 6 C12 9 12 9 11.625 11.1875 C11.41875 11.785625 11.2125 12.38375 11 13 C6.78185183 9.0299782 3.38772897 4.69159716 0 0 Z " fill="#3C62CC" transform="translate(69,191)"/>
<path d="M0 0 C0.66 1.32 1.32 2.64 2 4 C0.54300902 5.79275845 -0.91563655 7.58417229 -2.375 9.375 C-3.18710938 10.37273437 -3.99921875 11.37046875 -4.8359375 12.3984375 C-7 15 -7 15 -9 17 C-8.25 10.25 -8.25 10.25 -6 8 C-5.01 8 -4.02 8 -3 8 C-3.33 6.68 -3.66 5.36 -4 4 C-2.68 3.67 -1.36 3.34 0 3 C0 2.01 0 1.02 0 0 Z " fill="#375CB7" transform="translate(209,106)"/>
<path d="M0 0 C3.59634744 3.49359465 6.83451967 7.11098131 10 11 C9.01 11.33 8.02 11.66 7 12 C6.814375 11.360625 6.62875 10.72125 6.4375 10.0625 C5.05753944 7.57873787 5.05753944 7.57873787 1.375 7.25 C0.26125 7.1675 -0.8525 7.085 -2 7 C-1.42415568 4.61435923 -0.77772405 2.33317216 0 0 Z " fill="#365EC3" transform="translate(47,103)"/>
<path d="M0 0 C0.33 0 0.66 0 1 0 C1.7985754 17.0362753 1.7985754 17.0362753 -3 23 C-5.75 25.5 -5.75 25.5 -8 27 C-7.6875 25.0625 -7.6875 25.0625 -7 23 C-6.01 22.67 -5.02 22.34 -4 22 C-4 21.01 -4 20.02 -4 19 C-3.34 19 -2.68 19 -2 19 C-2.20625 18.236875 -2.4125 17.47375 -2.625 16.6875 C-3 14 -3 14 -1 11 C-0.54227937 8.26127045 -0.54227937 8.26127045 -0.375 5.3125 C-0.30023438 4.31863281 -0.22546875 3.32476563 -0.1484375 2.30078125 C-0.09945312 1.54152344 -0.05046875 0.78226563 0 0 Z " fill="#3759AB" transform="translate(170,22)"/>
<path d="M0 0 C3 0 3 0 4.5625 1.4375 C5.036875 1.953125 5.51125 2.46875 6 3 C6.66 3.33 7.32 3.66 8 4 C10 8.33333333 10 8.33333333 10 11 C10.66 11.66 11.32 12.32 12 13 C11.01 13 10.02 13 9 13 C4 7.65116279 4 7.65116279 4 5 C3.34 5 2.68 5 2 5 C1.34 3.35 0.68 1.7 0 0 Z " fill="#3C62C3" transform="translate(88,213)"/>
<path d="M0 0 C-0.33 0.66 -0.66 1.32 -1 2 C-2.65 2 -4.3 2 -6 2 C-6 1.34 -6 0.68 -6 0 C-11.28 0 -16.56 0 -22 0 C-16.03717166 -5.96282834 -6.89838865 -2.62795758 0 0 Z " fill="#3E66AD" transform="translate(108,68)"/>
<path d="M0 0 C0.33 0 0.66 0 1 0 C1.738041 13.6332574 1.738041 13.6332574 -3 20 C-3.33 20 -3.66 20 -4 20 C-4.04241723 17.66705225 -4.04092937 15.33297433 -4 13 C-3.67 12.67 -3.34 12.34 -3 12 C-2.63239269 9.67182036 -2.29758419 7.3381615 -2 5 C-1.67 5 -1.34 5 -1 5 C-0.67 3.35 -0.34 1.7 0 0 Z " fill="#3558B7" transform="translate(263,27)"/>
<path d="M0 0 C3.76351239 1.51444643 7.1445856 3.2891712 9 7 C6.6875 7.1875 6.6875 7.1875 4 7 C2.3125 5.5625 2.3125 5.5625 1 4 C0.34 3.67 -0.32 3.34 -1 3 C-1 2.34 -1 1.68 -1 1 C-4.63 1 -8.26 1 -12 1 C-12.33 1.66 -12.66 2.32 -13 3 C-13.66 2.34 -14.32 1.68 -15 1 C-10.55348986 -1.22325507 -4.8237287 -0.51722965 0 0 Z " fill="#3051A7" transform="translate(27,82)"/>
<path d="M0 0 C0.99 0.33 1.98 0.66 3 1 C0.66918786 6.72108435 -4.22850416 10.31913178 -9 14 C-8.6875 12.0625 -8.6875 12.0625 -8 10 C-7.01 9.67 -6.02 9.34 -5 9 C-5 8.34 -5 7.68 -5 7 C-4.34 7 -3.68 7 -3 7 C-3 5.68 -3 4.36 -3 3 C-2.01 3 -1.02 3 0 3 C0 2.01 0 1.02 0 0 Z " fill="#3E5FBA" transform="translate(184,236)"/>
<path d="M0 0 C1 3 1 3 -0.25 6 C-2.82122905 10.40782123 -2.82122905 10.40782123 -5 12 C-7.6875 12.6875 -7.6875 12.6875 -10 13 C-7 8.5 -7 8.5 -4 4 C-3.34 4 -2.68 4 -2 4 C-1.34 2.68 -0.68 1.36 0 0 Z " fill="#3859B7" transform="translate(244,106)"/>
<path d="M0 0 C3.26412358 3.17345348 6.18129234 6.42963696 9 10 C9.98230498 11.0173873 10.97469597 12.02596117 12 13 C6.25 11.125 6.25 11.125 4 10 C4 9.01 4 8.02 4 7 C3.01 7 2.02 7 1 7 C0.67 4.69 0.34 2.38 0 0 Z " fill="#3756AC" transform="translate(124,197)"/>
<path d="M0 0 C0 3.93169105 -1.39419615 5.16427228 -4 8 C-4.66 8 -5.32 8 -6 8 C-6.28875 8.61875 -6.5775 9.2375 -6.875 9.875 C-8 12 -8 12 -10 14 C-10.33 13.01 -10.66 12.02 -11 11 C-10.2884375 10.38125 -10.2884375 10.38125 -9.5625 9.75 C-7.83733482 7.817815 -7.43415125 6.51807725 -7 4 C-6.01 4 -5.02 4 -4 4 C-4 3.34 -4 2.68 -4 2 C-2.68 1.34 -1.36 0.68 0 0 Z " fill="#3858BB" transform="translate(255,153)"/>
<path d="M0 0 C0.66 0.33 1.32 0.66 2 1 C1.60348083 2.31872662 1.18201309 3.62997101 0.75 4.9375 C0.51796875 5.66839844 0.2859375 6.39929688 0.046875 7.15234375 C-1 9 -1 9 -3.109375 9.75390625 C-4.04523438 9.87572266 -4.04523438 9.87572266 -5 10 C-5 10.66 -5 11.32 -5 12 C-6.32 12.33 -7.64 12.66 -9 13 C-7.50923566 9.7173068 -5.61379679 7.06922559 -3.375 4.25 C-2.74335938 3.45078125 -2.11171875 2.6515625 -1.4609375 1.828125 C-0.97882813 1.22484375 -0.49671875 0.6215625 0 0 Z " fill="#3859B6" transform="translate(209,148)"/>
<path d="M0 0 C0.99 0.33 1.98 0.66 3 1 C-0.3 4.96 -3.6 8.92 -7 13 C-7.33 11.68 -7.66 10.36 -8 9 C-6.6015625 6.89453125 -6.6015625 6.89453125 -4.625 4.8125 C-3.97789062 4.11769531 -3.33078125 3.42289063 -2.6640625 2.70703125 C-1.78033392 1.80048338 -0.89521094 0.89521094 0 0 Z " fill="#3B5BBC" transform="translate(242,167)"/>
<path d="M0 0 C3.25516428 3.16474305 6.32008793 6.32752791 9 10 C9 10.66 9 11.32 9 12 C9.66 12 10.32 12 11 12 C10.67 12.66 10.34 13.32 10 14 C8.8274869 13.04882866 7.66212985 12.08882991 6.5 11.125 C5.8503125 10.59132812 5.200625 10.05765625 4.53125 9.5078125 C4.0259375 9.01023438 3.520625 8.51265625 3 8 C3 7.34 3 6.68 3 6 C2.34 6 1.68 6 1 6 C0.67 4.02 0.34 2.04 0 0 Z " fill="#3A5AB1" transform="translate(88,153)"/>
<path d="M0 0 C1 4 1 4 0 7 C-2.5625 8.1875 -2.5625 8.1875 -5 9 C-5 9.99 -5 10.98 -5 12 C-6.32 11.67 -7.64 11.34 -9 11 C-6.03 7.37 -3.06 3.74 0 0 Z " fill="#3757B5" transform="translate(233,119)"/>
<path d="M0 0 C0 4.02450677 -1.1034499 6.45977315 -3 10 C-6.1875 11.9375 -6.1875 11.9375 -9 13 C-7.50923566 9.7173068 -5.61379679 7.06922559 -3.375 4.25 C-2.74335938 3.45078125 -2.11171875 2.6515625 -1.4609375 1.828125 C-0.97882813 1.22484375 -0.49671875 0.6215625 0 0 Z " fill="#3959BC" transform="translate(153,116)"/>
<path d="M0 0 C0.66 0 1.32 0 2 0 C1.49259538 4.39750672 -1.08293314 6.86948922 -4 10 C-4.66 10 -5.32 10 -6 10 C-6 8.68 -6 7.36 -6 6 C-5.34 6 -4.68 6 -4 6 C-3.71125 5.38125 -3.4225 4.7625 -3.125 4.125 C-2 2 -2 2 0 0 Z " fill="#4167D1" transform="translate(251,98)"/>
<path d="M0 0 C5.29500913 1.36157378 7.23745533 4.60343955 10 9 C9 11 9 11 7 12 C6.67 10.02 6.34 8.04 6 6 C5.34 6 4.68 6 4 6 C3.67 5.34 3.34 4.68 3 4 C2.01 3.67 1.02 3.34 0 3 C0 2.01 0 1.02 0 0 Z " fill="#3F66C4" transform="translate(253,16)"/>
<path d="M0 0 C0.66 0 1.32 0 2 0 C2 0.66 2 1.32 2 2 C2.66 2 3.32 2 4 2 C4.33 3.32 4.66 4.64 5 6 C6.32 6.33 7.64 6.66 9 7 C8.67 8.32 8.34 9.64 8 11 C6.33333333 9.33333333 4.66666667 7.66666667 3 6 C2.401875 5.46375 1.80375 4.9275 1.1875 4.375 C0 3 0 3 0 0 Z " fill="#3B5BBA" transform="translate(100,227)"/>
<path d="M0 0 C1 3 1 3 0 6 C-0.66 6 -1.32 6 -2 6 C-2 6.66 -2 7.32 -2 8 C-4.1385485 10.1385485 -5.13275314 10.42655063 -8 11 C-6.68 8.69 -5.36 6.38 -4 4 C-3.34 4 -2.68 4 -2 4 C-1.34 2.68 -0.68 1.36 0 0 Z " fill="#375BAF" transform="translate(143,129)"/>
<path d="M0 0 C4.63607655 1.19213397 6.49826189 3.52902771 9.1796875 7.24609375 C10 9 10 9 9 12 C7.49707257 10.18992669 5.99772829 8.37687764 4.5 6.5625 C3.6646875 5.55316406 2.829375 4.54382813 1.96875 3.50390625 C0 1 0 1 0 0 Z " fill="#3154A5" transform="translate(18,129)"/>
<path d="M0 0 C-1.12451727 2.9719385 -2.22293791 5.33440687 -4 8 C-4.66 8 -5.32 8 -6 8 C-6.6875 6.25 -6.6875 6.25 -7 4 C-4.96738407 0.1487277 -4.56536841 0 0 0 Z " fill="#3B61CD" transform="translate(243,66)"/>
<path d="M0 0 C-1.40280696 2.80561393 -3.0509005 3.00680507 -5.9375 4.125 C-6.83339844 4.47820312 -7.72929687 4.83140625 -8.65234375 5.1953125 C-11 6 -11 6 -13 6 C-12 3 -12 3 -9.3125 1.3125 C-5.91018714 -0.03558623 -3.61672729 -0.25833766 0 0 Z " fill="#3E5FBA" transform="translate(171,252)"/>
<path d="M0 0 C1.485 0.99 1.485 0.99 3 2 C3 2.66 3 3.32 3 4 C3.66 4 4.32 4 5 4 C6.38232443 5.62626404 7.71937515 7.2925002 9 9 C8.67 9.66 8.34 10.32 8 11 C5.525 10.01 5.525 10.01 3 9 C3 7.68 3 6.36 3 5 C2.34 5 1.68 5 1 5 C0.67 3.35 0.34 1.7 0 0 Z " fill="#3959B2" transform="translate(37,91)"/>
<path d="M0 0 C1.09658936 3.28976808 0.79953138 4.71303767 0 8 C-0.66 8 -1.32 8 -2 8 C-2.33 8.99 -2.66 9.98 -3 11 C-3.33 11 -3.66 11 -4 11 C-4.49230769 4.6 -4.49230769 4.6 -2 1.5625 C-1.34 1.046875 -0.68 0.53125 0 0 Z " fill="#3A70C5" transform="translate(81,71)"/>
<path d="M0 0 C0.33 0.66 0.66 1.32 1 2 C0.0625 4.125 0.0625 4.125 -1 6 C-1.66 6 -2.32 6 -3 6 C-3.33 7.65 -3.66 9.3 -4 11 C-5.32 10.67 -6.64 10.34 -8 10 C-5.36 6.7 -2.72 3.4 0 0 Z " fill="#3755B0" transform="translate(185,178)"/>
<path d="M0 0 C-3.31016094 1.84790538 -6.57173491 2.74541487 -10.25 3.625 C-11.86648437 4.01558594 -11.86648437 4.01558594 -13.515625 4.4140625 C-14.33546875 4.60742188 -15.1553125 4.80078125 -16 5 C-16 4.34 -16 3.68 -16 3 C-10.9749232 -0.3500512 -5.9145821 -0.11829164 0 0 Z " fill="#4267D4" transform="translate(246,14)"/>
<path d="M0 0 C0.66 0 1.32 0 2 0 C0.23867546 4.00301032 -2.26132483 7.6028977 -5 11 C-5.33 11 -5.66 11 -6 11 C-6 9.35 -6 7.7 -6 6 C-5.34 6 -4.68 6 -4 6 C-3.71125 5.38125 -3.4225 4.7625 -3.125 4.125 C-2 2 -2 2 0 0 Z " fill="#3C5EBD" transform="translate(174,153)"/>
<path d="M0 0 C4.03384128 2.07143201 5.92856799 3.96615872 8 8 C7.34 8 6.68 8 6 8 C6 7.34 6 6.68 6 6 C4.35 5.67 2.7 5.34 1 5 C0.67 3.35 0.34 1.7 0 0 Z " fill="#3A63C9" transform="translate(70,133)"/>
<path d="M0 0 C1 3 1 3 -0.125 5.5625 C-2.23794891 8.30933359 -3.72518425 9.02640613 -7 10 C-7 9.34 -7 8.68 -7 8 C-6.34 8 -5.68 8 -5 8 C-4.731875 7.236875 -4.46375 6.47375 -4.1875 5.6875 C-3.05575888 3.12619116 -2.08776599 1.80307062 0 0 Z " fill="#395BB8" transform="translate(199,161)"/>
<path d="M0 0 C0.33 0.66 0.66 1.32 1 2 C0.1875 4.375 0.1875 4.375 -1 7 C-1.33 7.7425 -1.66 8.485 -2 9.25 C-3 11 -3 11 -5 12 C-4.58525633 6.71201818 -3.64775386 3.88309282 0 0 Z " fill="#3C66CF" transform="translate(170,94)"/>
<path d="M0 0 C5.78461538 4.43076923 5.78461538 4.43076923 6.875 7.3125 C6.936875 8.1478125 6.936875 8.1478125 7 9 C5.02 8.34 3.04 7.68 1 7 C0.67 4.69 0.34 2.38 0 0 Z " fill="#3260B5" transform="translate(108,69)"/>
<path d="M0 0 C0.89203125 0.00902344 1.7840625 0.01804687 2.703125 0.02734375 C3.37859375 0.03894531 4.0540625 0.05054687 4.75 0.0625 C4.75 0.3925 4.75 0.7225 4.75 1.0625 C2.83654673 1.59501766 0.9190705 2.11309483 -1 2.625 C-2.06734375 2.91503906 -3.1346875 3.20507812 -4.234375 3.50390625 C-7.09335927 4.03348494 -8.56597383 4.04620862 -11.25 3.0625 C-10.59 3.0625 -9.93 3.0625 -9.25 3.0625 C-9.25 2.4025 -9.25 1.7425 -9.25 1.0625 C-6.09493858 0.12630187 -3.28413498 -0.0432123 0 0 Z " fill="#407EE3" transform="translate(95.25,66.9375)"/>
<path d="M0 0 C0.66 0 1.32 0 2 0 C1.69381595 3.67420866 1.24228216 4.78135513 -1.5625 7.3125 C-2.366875 7.869375 -3.17125 8.42625 -4 9 C-4.66 8.67 -5.32 8.34 -6 8 C-5.04956626 6.66102417 -4.08940853 5.32894573 -3.125 4 C-2.59132812 3.2575 -2.05765625 2.515 -1.5078125 1.75 C-1.01023438 1.1725 -0.51265625 0.595 0 0 Z " fill="#3658AF" transform="translate(228,19)"/>
<path d="M0 0 C3.63 0 7.26 0 11 0 C11.33 0.99 11.66 1.98 12 3 C7.53160785 3.21278058 4.17737474 2.59138085 0 1 C0 0.67 0 0.34 0 0 Z " fill="#4066CA" transform="translate(129,255)"/>
<path d="M0 0 C0.66 0 1.32 0 2 0 C1.67 2.31 1.34 4.62 1 7 C0.34 7 -0.32 7 -1 7 C-1 6.34 -1 5.68 -1 5 C-1.9590625 4.566875 -1.9590625 4.566875 -2.9375 4.125 C-5 3 -5 3 -6 1 C-4.7934375 1.0309375 -4.7934375 1.0309375 -3.5625 1.0625 C-1.06645115 1.29633621 -1.06645115 1.29633621 0 0 Z " fill="#3C63C7" transform="translate(119,243)"/>
<path d="M0 0 C-1.98 2.97 -1.98 2.97 -4 6 C-7 2.25 -7 2.25 -7 0 C-4.3333581 -1.33332095 -2.83319697 -0.67102033 0 0 Z " fill="#395FCF" transform="translate(262,146)"/>
<path d="M0 0 C0.66 0 1.32 0 2 0 C1.125 3.875 1.125 3.875 0 5 C-2.67058851 5.14115161 -5.32432238 5.04247107 -8 5 C-5.4345406 2.4345406 -3.52313332 2.45953913 0 2 C0 1.34 0 0.68 0 0 Z " fill="#476DDE" transform="translate(173,247)"/>
<path d="M0 0 C0.66 1.32 1.32 2.64 2 4 C1.01 4.33 0.02 4.66 -1 5 C-1 5.66 -1 6.32 -1 7 C-2.32 7.33 -3.64 7.66 -5 8 C-3.62845496 5.04590299 -2.01136276 2.55991624 0 0 Z " fill="#3A5EBF" transform="translate(205,49)"/>
<path d="M0 0 C0.99 0.33 1.98 0.66 3 1 C3 1.66 3 2.32 3 3 C3.66 3 4.32 3 5 3 C4.67 3.99 4.34 4.98 4 6 C3.34 6 2.68 6 2 6 C2 5.34 2 4.68 2 4 C0.68 3.67 -0.64 3.34 -2 3 C-1.34 2.01 -0.68 1.02 0 0 Z " fill="#3C62C9" transform="translate(113,185)"/>
<path d="M0 0 C1.5 1.125 1.5 1.125 3 3 C3.1875 6.1875 3.1875 6.1875 3 9 C2.01 8.67 1.02 8.34 0 8 C0 5.36 0 2.72 0 0 Z " fill="#456DDD" transform="translate(119,32)"/>
<path d="M0 0 C3.55780196 0.60990891 6.6828589 1.5783681 10 3 C9.67 3.66 9.34 4.32 9 5 C5.22454612 3.90931332 2.52956528 3.0916909 0 0 Z " fill="#3659B6" transform="translate(120,250)"/>
<path d="M0 0 C3.3 0 6.6 0 10 0 C7.60236815 2.39763185 6.66726502 2.34280586 3.375 2.625 C2.55773437 2.69976562 1.74046875 2.77453125 0.8984375 2.8515625 C0.27195313 2.90054688 -0.35453125 2.94953125 -1 3 C-0.67 2.01 -0.34 1.02 0 0 Z " fill="#3955B2" transform="translate(149,172)"/>
<path d="M0 0 C1.08667969 0.29197266 1.08667969 0.29197266 2.1953125 0.58984375 C2.74960938 0.74582031 3.30390625 0.90179688 3.875 1.0625 C3.545 1.7225 3.215 2.3825 2.875 3.0625 C-3.875 2.3125 -3.875 2.3125 -6.125 0.0625 C-3.57797384 -1.21101308 -2.6967055 -0.73941925 0 0 Z " fill="#3F65CD" transform="translate(145.125,170.9375)"/>
<path d="M0 0 C0.66 0 1.32 0 2 0 C2.66 1.98 3.32 3.96 4 6 C3.01 6 2.02 6 1 6 C-0.6875 4 -0.6875 4 -2 2 C-1.34 1.34 -0.68 0.68 0 0 Z " fill="#345ABC" transform="translate(135,164)"/>
<path d="M0 0 C0.33 0.99 0.66 1.98 1 3 C-0.21484375 4.82421875 -0.21484375 4.82421875 -1.9375 6.6875 C-2.50339844 7.31011719 -3.06929687 7.93273437 -3.65234375 8.57421875 C-4.09707031 9.04472656 -4.54179687 9.51523438 -5 10 C-5.66 9.67 -6.32 9.34 -7 9 C-4.69 6.03 -2.38 3.06 0 0 Z " fill="#3651A8" transform="translate(184,76)"/>
<path d="M0 0 C3.48331435 3.01887244 4.79157144 5.56909529 6 10 C5.34 10 4.68 10 4 10 C1.04696841 6.92884715 0.47348414 4.1666604 0 0 Z " fill="#2F4CA4" transform="translate(164,11)"/>
<path d="M0 0 C1.32 0.33 2.64 0.66 4 1 C4.33 1.99 4.66 2.98 5 4 C5.66 4 6.32 4 7 4 C6.67 5.32 6.34 6.64 6 8 C4.02 5.36 2.04 2.72 0 0 Z " fill="#395CB8" transform="translate(69,191)"/>
<path d="M0 0 C0.33 0 0.66 0 1 0 C1.125 2.375 1.125 2.375 1 5 C0.34 5.66 -0.32 6.32 -1 7 C-3.125 6.625 -3.125 6.625 -5 6 C-3.35830472 3.97945196 -1.69088222 1.97956942 0 0 Z " fill="#375BBD" transform="translate(220,135)"/>
<path d="M0 0 C0.66 1.32 1.32 2.64 2 4 C0.35 5.98 -1.3 7.96 -3 10 C-3.33 9.01 -3.66 8.02 -4 7 C-3.01 6.67 -2.02 6.34 -1 6 C-0.67 4.02 -0.34 2.04 0 0 Z " fill="#385ABA" transform="translate(287,110)"/>
<path d="M0 0 C0.33 0 0.66 0 1 0 C1.144375 1.134375 1.28875 2.26875 1.4375 3.4375 C1.61171478 6.80777201 1.61171478 6.80777201 3 8 C3.04080783 9.99958364 3.04254356 12.00045254 3 14 C0.65454672 11.65454672 0.04491112 10.04014162 -0.09765625 6.73828125 C-0.08605469 5.93777344 -0.07445313 5.13726562 -0.0625 4.3125 C-0.05347656 3.50425781 -0.04445312 2.69601563 -0.03515625 1.86328125 C-0.02355469 1.24839844 -0.01195313 0.63351563 0 0 Z " fill="#223D85" transform="translate(1,97)"/>
<path d="M0 0 C0.33 0 0.66 0 1 0 C1.25 2.3125 1.25 2.3125 1 5 C-1 6.8125 -1 6.8125 -3 8 C-3.66 7.67 -4.32 7.34 -5 7 C-4.19152271 5.83054208 -3.37810888 4.66449539 -2.5625 3.5 C-2.11003906 2.8503125 -1.65757812 2.200625 -1.19140625 1.53125 C-0.79824219 1.0259375 -0.40507812 0.520625 0 0 Z " fill="#3857A9" transform="translate(176,86)"/>
<path d="M0 0 C1.98 0.495 1.98 0.495 4 1 C4 2.32 4 3.64 4 5 C2.35 5.33 0.7 5.66 -1 6 C-0.67 4.02 -0.34 2.04 0 0 Z " fill="#416ADE" transform="translate(33,88)"/>
<path d="M0 0 C0.99 0.99 1.98 1.98 3 3 C1.35 4.98 -0.3 6.96 -2 9 C-2.6875 7.3125 -2.6875 7.3125 -3 5 C-1.5625 2.25 -1.5625 2.25 0 0 Z " fill="#3858B1" transform="translate(253,49)"/>
<path d="M0 0 C-1.29299694 2.88437779 -2.65941363 4.87219421 -5 7 C-5 5.02 -5 3.04 -5 1 C-3 0 -3 0 0 0 Z " fill="#3B63C5" transform="translate(268,138)"/>
<path d="M0 0 C0.99 0.33 1.98 0.66 3 1 C1.35 2.98 -0.3 4.96 -2 7 C-2.6875 5.1875 -2.6875 5.1875 -3 3 C-1.5625 1.25 -1.5625 1.25 0 0 Z " fill="#3553AB" transform="translate(242,167)"/>
<path d="M0 0 C0.66 0 1.32 0 2 0 C2.66 2.31 3.32 4.62 4 7 C3.34 7.66 2.68 8.32 2 9 C0.14223235 5.86501708 -0.20140476 3.62528568 0 0 Z " fill="#3B58AD" transform="translate(130,157)"/>
<path d="M0 0 C4.875 4.75 4.875 4.75 6 7 C3.13275314 6.42655063 2.1385485 6.1385485 0 4 C0 2.68 0 1.36 0 0 Z " fill="#3A5BBC" transform="translate(82,146)"/>
<path d="M0 0 C4.67692308 1.47692308 4.67692308 1.47692308 6.3125 4.125 C6.539375 4.74375 6.76625 5.3625 7 6 C6.01 6 5.02 6 4 6 C1.8125 3 1.8125 3 0 0 Z " fill="#385AB6" transform="translate(28,141)"/>
<path d="M0 0 C1.65 1.32 3.3 2.64 5 4 C4.67 5.65 4.34 7.3 4 9 C3.01 8.34 2.02 7.68 1 7 C0.3125 3.375 0.3125 3.375 0 0 Z " fill="#3559B4" transform="translate(284,89)"/>
<path d="M0 0 C2.96175123 0.61277612 4.38058783 1.25372522 7 3 C6 4 6 4 3.4375 4.0625 C2.2309375 4.0315625 2.2309375 4.0315625 1 4 C0.67 2.68 0.34 1.36 0 0 Z " fill="#3868B6" transform="translate(101,66)"/>
<path d="M0 0 C0.66 1.32 1.32 2.64 2 4 C0.68 4.99 -0.64 5.98 -2 7 C-2.125 4.625 -2.125 4.625 -2 2 C-1.34 1.34 -0.68 0.68 0 0 Z " fill="#365EB8" transform="translate(217,196)"/>
<path d="M0 0 C0.33 1.32 0.66 2.64 1 4 C0.01 4.495 0.01 4.495 -1 5 C-2.13350534 7.01669827 -2.13350534 7.01669827 -3 9 C-3.33 8.34 -3.66 7.68 -4 7 C-3.22265625 5.2734375 -3.22265625 5.2734375 -2.0625 3.375 C-1.381875 2.26125 -0.70125 1.1475 0 0 Z " fill="#4165CD" transform="translate(176,189)"/>
<path d="M0 0 C2.475 0.495 2.475 0.495 5 1 C5.33 2.32 5.66 3.64 6 5 C5.01 5 4.02 5 3 5 C1.3125 2.5 1.3125 2.5 0 0 Z " fill="#345CB3" transform="translate(34,148)"/>
<path d="M0 0 C0.33 0 0.66 0 1 0 C1 1.98 1 3.96 1 6 C-0.65 6 -2.3 6 -4 6 C-2.69593116 3.98079663 -1.36176581 1.98075027 0 0 Z " fill="#3754BA" transform="translate(255,92)"/>
<path d="M0 0 C0.99 0.33 1.98 0.66 3 1 C0.6875 3.0625 0.6875 3.0625 -2 5 C-2.99 4.67 -3.98 4.34 -5 4 C-3.36587557 2.29159719 -2.13093906 1.06546953 0 0 Z " fill="#395AB5" transform="translate(159,49)"/>
</svg>
